<?xml version="1.0" encoding="UTF-8" standalone="no"?>
<!-- Created with Inkscape (http://www.inkscape.org/) -->

<svg
   xmlns:dc="http://purl.org/dc/elements/1.1/"
   xmlns:cc="http://creativecommons.org/ns#"
   xmlns:rdf="http://www.w3.org/1999/02/22-rdf-syntax-ns#"
   xmlns:svg="http://www.w3.org/2000/svg"
   xmlns="http://www.w3.org/2000/svg"
   xmlns:sodipodi="http://sodipodi.sourceforge.net/DTD/sodipodi-0.dtd"
   xmlns:inkscape="http://www.inkscape.org/namespaces/inkscape"
   width="256"
   height="256"
   id="svg2"
   version="1.1"
   inkscape:version="0.48.3.1 r9886"
   sodipodi:docname="tunnel.svg"
   inkscape:export-filename="/home/halcyon/Desktop/src/3DS/nordlicht16/tunnel.png"
   inkscape:export-xdpi="90"
   inkscape:export-ydpi="90">
  <defs
     id="defs4" />
  <sodipodi:namedview
     id="base"
     pagecolor="#ffffff"
     bordercolor="#666666"
     borderopacity="1.0"
     inkscape:pageopacity="0.0"
     inkscape:pageshadow="2"
     inkscape:zoom="1"
     inkscape:cx="9.714286"
     inkscape:cy="97.471971"
     inkscape:document-units="px"
     inkscape:current-layer="layer1"
     showgrid="false"
     inkscape:window-width="1366"
     inkscape:window-height="727"
     inkscape:window-x="-4"
     inkscape:window-y="20"
     inkscape:window-maximized="1" />
  <metadata
     id="metadata7">
    <rdf:RDF>
      <cc:Work
         rdf:about="">
        <dc:format>image/svg+xml</dc:format>
        <dc:type
           rdf:resource="http://purl.org/dc/dcmitype/StillImage" />
        <dc:title></dc:title>
      </cc:Work>
    </rdf:RDF>
  </metadata>
  <g
     inkscape:label="Layer 1"
     inkscape:groupmode="layer"
     id="layer1"
     transform="translate(0,-796.36218)">
    <path
       id="path3814"
       d="m 138,806.36218 108,0 0,108 -108,0 z"
       style="opacity:1;fill:#fff8ff;fill-opacity:1;stroke:none" />
    <rect
       style="fill:#da8ac0;fill-opacity:1;stroke:none;stroke-width:1;stroke-linecap:butt;stroke-linejoin:round;stroke-miterlimit:4;stroke-opacity:1;stroke-dasharray:none;stroke-dashoffset:9"
       id="rect2985"
       width="127"
       height="127"
       x="0.5"
       y="796.86218" />
    <path
       style="fill:#666666;fill-opacity:1;stroke:none"
       d="M 0 0 L 0 128 L 128 128 L 128 0 L 0 0 z M 10 10 L 118 10 L 118 118 L 10 118 L 10 10 z "
       transform="translate(0,796.36218)"
       id="rect3755" />
    <path
       style="fill:#ffffff;fill-opacity:1;stroke:none"
       d="M 128 0 L 128 128 L 256 128 L 256 0 L 128 0 z M 138 10 L 246 10 L 246 118 L 138 118 L 138 10 z "
       transform="translate(0,796.36218)"
       id="rect3757" />
    <path
       style="opacity:0.5;fill:#daf8c0;fill-opacity:1;stroke:none"
       d="m 138,806.36218 108,0 0,108 -108,0 z"
       id="rect3780" />
    <path
       id="path3807"
       d="m 10,806.36218 108,0 0,108 -108,0 z"
       style="opacity:0.5;fill:#daf8c0;fill-opacity:1;stroke:none"
       inkscape:connector-curvature="0" />
    <path
       id="path3812"
       d="m 0,924.36218 0,128.00002 128,0 0,-128.00002 -128,0 z m 10,10 108,0 0,108.00002 -108,0 0,-108.00002 z"
       style="fill:#666666;fill-opacity:1;stroke:none"
       inkscape:connector-curvature="0" />
  </g>
</svg>
